<svg width="30" height="30" viewBox="0 0 30 30" fill="none" xmlns="http://www.w3.org/2000/svg">
<rect width="30" height="30" rx="7" fill="#32ADE6"/>
<path d="M14.9336 25.6348C13.5404 25.6348 12.2285 25.3678 10.998 24.834C9.76758 24.3066 8.68359 23.5742 7.74609 22.6367C6.80859 21.6992 6.07292 20.6185 5.53906 19.3945C5.01172 18.1641 4.74805 16.849 4.74805 15.4492C4.74805 14.056 5.01172 12.7474 5.53906 11.5234C6.07292 10.293 6.80534 9.20898 7.73633 8.27148C8.67383 7.33398 9.75781 6.60156 10.9883 6.07422C12.2253 5.54036 13.5404 5.27344 14.9336 5.27344C16.3268 5.27344 17.6387 5.54036 18.8691 6.07422C20.0996 6.60156 21.1803 7.33398 22.1113 8.27148C23.0488 9.20898 23.7845 10.293 24.3184 11.5234C24.8522 12.7474 25.1191 14.056 25.1191 15.4492C25.1191 16.849 24.8522 18.1641 24.3184 19.3945C23.7845 20.6185 23.0488 21.6992 22.1113 22.6367C21.1803 23.5742 20.0996 24.3066 18.8691 24.834C17.6387 25.3678 16.3268 25.6348 14.9336 25.6348ZM14.9336 23.3984C16.0339 23.3984 17.0658 23.1934 18.0293 22.7832C18.9928 22.373 19.8359 21.8066 20.5586 21.084C21.2878 20.3548 21.8574 19.5117 22.2676 18.5547C22.6777 17.5911 22.8828 16.556 22.8828 15.4492C22.8828 14.349 22.6745 13.3203 22.2578 12.3633C21.8477 11.3997 21.278 10.5534 20.5488 9.82422C19.8262 9.09505 18.9831 8.52539 18.0195 8.11523C17.0625 7.70508 16.0339 7.5 14.9336 7.5V23.3984Z" fill="white"/>
</svg>
